# xmcd
#
# Track frame offsets: 
#        150
#        42171
#        105044
#        165585
#
# Disc length: 3280 seconds
#
# Revision: 1
# Processed by: cddbd v1.5.2PL0 Copyright (c) Steve Scherf et al.
# Submitted via: ExactAudioCopy v1.3
#
DISCID=1f0cce04
DTITLE=Keith Tippett - Live at Le Mans [CD1)
DYEAR=1998
DGENRE=Jazz
TTITLE0=First Thread
TTITLE1=Second Thread
TTITLE2=Third Thread
TTITLE3=Fourth Thread
EXTD=YEAR: 1998
EXTT0=
EXTT1=
EXTT2=
EXTT3=
PLAYORDER=
